<?xml version="1.0" standalone="no"?>
<!DOCTYPE svg PUBLIC "-//W3C//DTD SVG 20010904//EN"
 "http://www.w3.org/TR/2001/REC-SVG-20010904/DTD/svg10.dtd">
<svg version="1.0" xmlns="http://www.w3.org/2000/svg"
 width="800.000000pt" height="800.000000pt" viewBox="0 0 800.000000 800.000000"
 preserveAspectRatio="xMidYMid meet">
<metadata>
Created by potrace 1.11, written by Peter Selinger 2001-2013
</metadata>
<g transform="translate(0.000000,800.000000) scale(0.100000,-0.100000)"
fill="#000000" stroke="none">
<path d="M3919 6240 c-9 -5 -29 -9 -45 -8 -16 1 -51 -2 -79 -6 -27 -4 -62 -9
-76 -11 -24 -3 -218 -39 -264 -49 -226 -48 -557 -148 -700 -211 -16 -7 -59
-25 -95 -40 -354 -148 -700 -380 -988 -661 -51 -51 -121 -116 -155 -145 -243
-209 -424 -473 -546 -796 -38 -100 -39 -106 -29 -166 26 -158 85 -249 198
-307 22 -11 40 -24 40 -29 0 -4 -9 -34 -20 -67 -18 -50 -19 -65 -9 -100 6 -23
8 -51 4 -62 -4 -15 2 -30 24 -53 17 -18 31 -27 31 -20 0 6 6 11 14 11 10 0 13
-13 13 -47 -2 -130 54 -299 130 -394 63 -79 204 -176 386 -266 63 -31 271
-107 321 -118 11 -2 32 -7 46 -10 102 -26 228 -44 276 -39 38 5 63 2 86 -9 26
-12 43 -13 83 -5 82 16 243 16 273 0 19 -10 61 -13 141 -13 63 1 117 3 120 5
3 2 44 7 91 10 100 8 206 29 425 85 88 23 180 44 205 47 25 3 47 8 50 9 3 2
35 7 70 10 36 4 67 8 70 10 3 2 54 7 112 11 88 5 114 4 149 -10 29 -12 45 -14
54 -6 30 25 97 -44 82 -84 -3 -8 -1 -16 5 -18 6 -2 12 -17 14 -34 10 -111 74
-361 125 -489 71 -176 184 -345 264 -395 36 -22 36 -22 78 -4 65 29 148 87
192 133 67 70 145 125 261 185 134 68 304 194 304 225 0 5 9 12 20 16 11 3 19
11 17 17 -1 6 7 12 18 14 11 1 26 12 33 23 10 14 18 18 30 11 96 -50 203 -75
338 -79 96 -2 123 8 88 34 -16 11 -16 15 -5 29 13 15 16 15 38 0 20 -12 28
-13 37 -3 8 9 8 10 -1 5 -12 -7 -42 18 -44 37 -1 7 -3 22 -4 34 -4 43 -24 55
-85 50 -49 -3 -59 -1 -70 17 -19 30 -36 105 -35 153 1 38 -1 41 -18 31 -16 -8
-25 -4 -53 23 l-34 32 -24 -26 c-14 -15 -31 -27 -39 -27 -22 0 -44 32 -41 60
2 14 5 42 7 63 5 47 -6 47 -28 1 -14 -30 -15 -41 -5 -65 14 -32 8 -105 -9
-122 -6 -6 -27 -11 -46 -10 -19 1 -35 -3 -35 -7 0 -5 -13 -17 -29 -26 -22 -13
-28 -22 -22 -33 5 -8 4 -25 -2 -38 -8 -18 -15 -22 -31 -17 -12 4 -24 11 -27
17 -11 15 -28 -1 -22 -21 3 -14 -4 -22 -27 -32 -25 -10 -30 -17 -26 -34 15
-52 17 -73 7 -99 -11 -29 -16 -29 -68 -10 -6 3 -22 -10 -35 -29 -15 -21 -31
-33 -47 -33 -18 0 -26 -9 -38 -45 -8 -25 -28 -55 -44 -68 -16 -13 -42 -43 -59
-67 -34 -50 -94 -83 -167 -92 l-50 -5 -21 53 c-26 68 -40 115 -47 159 -3 19
-8 49 -12 65 -7 34 -5 397 2 435 3 14 8 38 10 54 3 16 10 37 16 47 14 28 -21
59 -68 59 -20 0 -44 7 -53 15 -10 9 -35 17 -56 18 -22 1 -45 8 -52 15 -7 6
-23 12 -34 12 -11 0 -37 13 -57 28 -20 15 -54 37 -76 47 -75 37 -208 142 -199
157 3 5 -5 17 -19 28 -16 12 -24 30 -25 52 -1 18 -4 43 -6 54 -4 17 4 25 35
40 23 10 53 36 71 60 16 23 41 47 54 53 13 6 29 22 34 36 6 15 17 25 29 25 11
0 23 5 26 10 4 6 10 8 14 6 4 -3 22 4 40 15 23 14 31 24 26 38 -3 10 1 24 10
31 8 7 15 9 15 4 1 -5 8 4 16 19 9 16 21 26 28 24 7 -3 18 4 25 15 7 11 18 17
26 14 18 -6 167 29 208 50 45 24 48 31 41 109 -6 78 -7 89 -5 125 0 14 -1 62
-4 108 -4 84 2 112 37 163 9 14 15 29 11 32 -3 4 -1 12 5 20 6 7 16 35 22 62
6 28 19 61 29 75 10 14 21 37 25 53 3 15 22 45 41 65 30 34 38 38 72 34 24 -3
48 -15 66 -33 32 -32 41 -34 76 -15 l23 13 -23 19 c-13 10 -36 36 -51 56 -30
40 -37 94 -18 144 14 36 0 52 -34 36 -21 -9 -27 -8 -35 5 -6 12 -2 24 18 43
42 44 128 107 197 146 43 24 64 42 64 54 0 28 -14 32 -48 14 -17 -8 -41 -16
-54 -17 -36 -2 -95 12 -107 27 -10 11 -4 19 29 37 44 25 52 52 26 92 -8 12
-31 59 -50 105 -44 103 -111 218 -147 255 -16 15 -54 67 -85 115 -196 297
-539 497 -959 557 -23 3 -52 8 -65 12 -45 11 -135 13 -151 3z"/>
<path d="M6253 4347 c-120 -35 -162 -57 -105 -57 66 0 329 -68 428 -110 24
-11 45 -28 49 -39 7 -25 25 -28 25 -5 0 9 5 12 12 8 7 -4 8 -3 4 5 -4 6 -2 18
4 26 7 8 10 21 7 29 -3 8 0 19 7 25 14 12 5 116 -11 132 -4 4 -75 10 -158 13
-146 5 -153 4 -262 -27z"/>
<path d="M5750 4186 c0 -9 -4 -16 -10 -16 -5 0 -14 -9 -20 -20 -13 -24 19 -95
47 -104 51 -15 75 -14 94 5 10 10 19 16 19 13 0 -3 14 8 30 24 29 29 40 49 21
37 -6 -3 -15 3 -20 13 -16 30 -55 50 -110 58 -43 6 -51 4 -51 -10z"/>
<path d="M6146 4168 c3 -5 10 -6 15 -3 13 9 11 12 -6 12 -8 0 -12 -4 -9 -9z"/>
<path d="M6023 4162 c-12 -2 -27 -10 -34 -18 -10 -13 -8 -14 17 -9 16 2 43 9
59 13 30 8 30 9 5 13 -14 2 -35 3 -47 1z"/>
<path d="M5412 3867 c-6 -8 -4 -29 5 -61 12 -41 17 -47 28 -35 18 20 29 59 16
59 -6 0 -11 9 -11 19 0 23 -25 34 -38 18z"/>
<path d="M5458 3596 c-6 -28 7 -56 26 -56 8 0 12 11 11 28 -3 52 -29 71 -37
28z"/>
<path d="M6480 3560 c-16 -39 -33 -52 -77 -59 -31 -5 -38 -11 -50 -46 -7 -22
-22 -47 -32 -55 -11 -8 -31 -40 -46 -70 -29 -58 -62 -105 -107 -155 -16 -16
-28 -33 -28 -37 0 -13 38 -28 73 -28 26 0 36 -5 40 -20 3 -11 19 -25 35 -31
28 -9 30 -14 25 -44 -5 -31 -3 -33 27 -40 17 -4 33 -12 34 -18 2 -7 15 -48 30
-92 14 -44 26 -87 26 -97 0 -11 6 -15 20 -11 21 6 86 -50 76 -65 -3 -5 6 -20
20 -33 32 -30 55 -83 52 -120 -2 -27 -12 -34 -44 -30 -14 2 -17 -80 -4 -114
10 -28 -3 -43 -46 -51 -33 -6 -80 12 -88 33 -7 17 3 63 17 81 5 6 20 12 33 12
13 0 24 5 24 10 0 6 -5 10 -10 10 -6 0 -30 20 -54 45 -30 30 -53 45 -70 45
-26 0 -43 -15 -27 -24 8 -5 23 -62 25 -96 1 -8 -7 -23 -16 -33 -25 -25 -22
-44 10 -59 18 -9 27 -21 26 -36 -1 -21 3 -22 62 -22 40 0 64 4 64 11 0 7 12 9
32 7 23 -4 36 0 45 11 10 14 16 14 70 0 41 -11 67 -13 84 -7 51 20 156 8 237
-28 56 -25 86 -25 95 0 11 28 -6 52 -61 85 -149 91 -211 181 -341 491 -75 179
-110 234 -202 320 -67 62 -73 71 -73 107 0 27 10 53 30 84 52 75 105 179 99
189 -11 17 -22 11 -35 -20z"/>
<path d="M5486 3512 c-3 -6 1 -25 9 -43 l15 -34 -4 38 c-4 42 -11 54 -20 39z"/>
<path d="M5850 3029 c0 -8 13 -26 28 -40 15 -15 39 -42 52 -61 29 -43 75 -76
133 -93 82 -24 87 17 12 89 -65 63 -225 137 -225 105z"/>
<path d="M6265 2321 c-3 -6 4 -9 15 -8 11 1 20 5 20 9 0 11 -28 10 -35 -1z"/>
</g>
</svg>
